<svg xmlns="http://www.w3.org/2000/svg" style="position:absolute; width: 0; height: 0;"><defs><rect id="checkbox-check-a" x="15" y="155" width="19" height="19" rx="3"> </rect><rect id="checkbox-uncheck-a" x="16" y="50" width="19" height="19" rx="3"> </rect><circle id="logo-a" cx="30" cy="30" r="30"> </circle><filter x="-35.6%" y="-27.4%" width="171.2%" height="169.8%" filterUnits="objectBoundingBox" id="logo-c"> <feOffset dy="4" in="SourceAlpha" result="shadowOffsetOuter1"></feOffset><feGaussianBlur stdDeviation="5.5" in="shadowOffsetOuter1" result="shadowBlurOuter1"></feGaussianBlur><feColorMatrix values="0 0 0 0 0 0 0 0 0 0 0 0 0 0 0 0 0 0 0.35 0" in="shadowBlurOuter1" result="shadowMatrixOuter1"></feColorMatrix><feMerge><feMergeNode in="shadowMatrixOuter1"></feMergeNode><feMergeNode in="SourceGraphic"></feMergeNode></feMerge></filter><path d="M22.91 21.612v6.45c0 .255-.02.55-.055.861l3.698 2.927a.759.759 0 0 1 .17.962l-.09.149c-.19.316-.63.53-.992.492l-4.038-.423c-.486.972-1.19 2.015-1.974 2.015-.783 0-1.482-1.041-1.964-2.012l-4.006.42c-.36.038-.801-.176-.992-.492l-.09-.149a.759.759 0 0 1 .17-.962l3.679-2.912a7.716 7.716 0 0 1-.058-.876v-6.445l-13.694.699c-.354.018-.858-.156-1.136-.397l-.193-.168c-.273-.237-.49-.727-.484-1.085l.013-.836c.006-.362.263-.785.583-.95l14.91-7.654v-5.79c0-.897.321-2.271.766-3.066 0 0 .96-2.37 2.507-2.37 1.546 0 2.512 2.381 2.512 2.381.419.79.758 2.152.758 3.055v5.74l15.006 7.704c.32.165.577.588.583.95l.013.836c.006.358-.211.848-.484 1.085l-.194.168c-.277.241-.781.415-1.136.397l-13.788-.704z" id="logo-d"> </path></defs><symbol viewBox="0 0 19 19" id="checkbox-check"><g fill="none" fill-rule="evenodd"><g transform="translate(-15 -155)"><use fill="#F2FCFF" xlink:href="#checkbox-check-a"></use><rect stroke="#3E9CE8" x="15.5" y="155.5" width="18" height="18" rx="3"></rect></g><path stroke="#3E9CE8" stroke-width="2" stroke-linecap="round" stroke-linejoin="round" d="M7 9l2 2 4-4"></path></g></symbol><symbol viewBox="0 0 21 21" id="checkbox-uncheck"><g transform="translate(-15 -49)" fill="none" fill-rule="evenodd"><use fill="#FFF" xlink:href="#checkbox-uncheck-a"></use><rect stroke="#D2D5D6" x="15.5" y="49.5" width="20" height="20" rx="3"></rect></g></symbol><symbol viewBox="0 0 60 61" id="logo"><g fill="none" fill-rule="evenodd"><g transform="translate(0 .14)"><circle cx="30.375" cy="37.875" r="22.125"></circle><mask id="logo-b" fill="#fff"><use xlink:href="#logo-a"></use></mask><use fill="#2196F3" xlink:href="#logo-a"></use><circle stroke="#42A5F5" stroke-width="3.75" cx="30" cy="30" r="28.125"></circle><g mask="url(#logo-b)" stroke="#42A5F5" stroke-width="3.75"><path d="M2.714 22.875h53.822M2.714 38.625h53.822" stroke-linecap="square"></path><path d="M29.25 4.5s-9.962 11.578-9.747 26.25C19.72 45.422 29.25 55.5 29.25 55.5M30 4.5s9.962 11.578 9.747 26.25C39.53 45.422 30 55.5 30 55.5" stroke-linecap="round" stroke-linejoin="round"></path></g></g><g transform="rotate(60 15.285 32.3)" filter="url(#logo-c)"><mask id="logo-e" fill="#fff"><use xlink:href="#logo-d"></use></mask><use fill="#FFF" xlink:href="#logo-d"></use><path fill="#EBECF2" mask="url(#logo-e)" d="M15.059 9.94h1.309v12.408h-1.309z"></path><path d="M38.499 19.83c-.006-.362-.264-.785-.583-.95l-15.504-7.959v10.666l14.286.729c.355.018.859-.156 1.136-.397l.194-.168c.273-.237.49-.727.484-1.085l-.013-.836z" fill="#DEE1E3" mask="url(#logo-e)"></path><path d="M21.492 33.018c.415-.915.657-1.794.657-1.794.23-.65.415-1.616.501-2.463l3.903 3.089a.759.759 0 0 1 .17.962l-.09.149c-.19.316-.63.53-.992.492l-4.149-.435z" fill="#DEE1E3" opacity=".4" mask="url(#logo-e)"></path><path d="M26.426 21.791l-3.746-.19V11.057l1.791.92 1.955 9.813z" fill="#C5C6CC" mask="url(#logo-e)"></path><path d="M22.91.679v34.4s-1.815-.034-3.281-.034l-.053-.001c.76-1.122 2.026-3.534 2.026-6.581V4.648c0-2.646-1.203-3.99-1.687-4.625 1.352.228 2.995.656 2.995.656z" fill="#DEE1E3" mask="url(#logo-e)"></path></g></g></symbol><symbol viewBox="0 0 13 13" id="plane"><path d="M3.9 13h1.3l3.25-5.474h3.575c.54 0 .975-.458.975-1.026 0-.568-.436-1.026-.975-1.026H8.45L5.2 0H3.9l1.625 5.474H1.95L.975 4.105H0L.65 6.5 0 8.895h.975l.975-1.369h3.575L3.9 13z" fill="#D2D5D6" fill-rule="nonzero"></path></symbol></svg>